<svg width="24" height="24" viewBox="0 0 24 24" fill="none" xmlns="http://www.w3.org/2000/svg">
  <rect x="2" y="2" width="20" height="20" rx="3" stroke="var(--color-main-light-third-text)" stroke-width="1.5"/>
  <path d="M11.75 17C11.75 17.4142 12.0858 17.75 12.5 17.75C12.9142 17.75 13.25 17.4142 13.25 17L11.75 17ZM13.25 11C13.25 10.5858 12.9142 10.25 12.5 10.25C12.0858 10.25 11.75 10.5858 11.75 11L13.25 11ZM11.75 11L11.75 17L13.25 17L13.25 11L11.75 11Z" fill="var(--color-main-light-third-text)"/>
  <path d="M10.5 10.25C10.0858 10.25 9.75 10.5858 9.75 11C9.75 11.4142 10.0858 11.75 10.5 11.75L10.5 10.25ZM12.5 11.75C12.9142 11.75 13.25 11.4142 13.25 11C13.25 10.5858 12.9142 10.25 12.5 10.25L12.5 11.75ZM12.5 10.25L10.5 10.25L10.5 11.75L12.5 11.75L12.5 10.25Z" fill="var(--color-main-light-third-text)"/>
  <path d="M11.75 8C11.75 8.41421 12.0858 8.75 12.5 8.75C12.9142 8.75 13.25 8.41421 13.25 8L11.75 8ZM13.25 7C13.25 6.58579 12.9142 6.25 12.5 6.25C12.0858 6.25 11.75 6.58579 11.75 7L13.25 7ZM11.75 7L11.75 8L13.25 8L13.25 7L11.75 7Z" fill="var(--color-main-light-third-text)"/>
</svg>
