<svg width="22" height="22" viewBox="0 0 22 22" fill="none" xmlns="http://www.w3.org/2000/svg">
  <path fill-rule="evenodd" clip-rule="evenodd" d="M0.25 4C0.25 1.92893 1.92893 0.25 4 0.25H18C20.0711 0.25 21.75 1.92893 21.75 4V18C21.75 20.0711 20.0711 21.75 18 21.75H4C1.92893 21.75 0.25 20.0711 0.25 18V4ZM4 1.75C2.75736 1.75 1.75 2.75736 1.75 4V18C1.75 19.2426 2.75736 20.25 4 20.25H18C19.2426 20.25 20.25 19.2426 20.25 18V4C20.25 2.75736 19.2426 1.75 18 1.75H4ZM5.8501 12.07C5.43588 12.07 5.1001 12.4058 5.1001 12.82C5.1001 13.2342 5.43588 13.57 5.8501 13.57H14.3392L12.5795 15.3297C12.2866 15.6225 12.2866 16.0974 12.5795 16.3903C12.8724 16.6832 13.3473 16.6832 13.6402 16.3903L16.6696 13.3609C16.8117 13.2244 16.9001 13.0326 16.9001 12.82C16.9001 12.4058 16.5643 12.07 16.1501 12.07H16.1496H5.8501ZM9.42044 5.60969C9.71333 5.90258 9.71333 6.37746 9.42043 6.67035L7.66077 8.42999H16.1501C16.5643 8.42999 16.9001 8.76578 16.9001 9.17999C16.9001 9.59421 16.5643 9.92999 16.1501 9.92999H5.8501C5.6438 9.92999 5.45696 9.8467 5.32136 9.71191L5.31977 9.71032L5.31818 9.70873C5.24706 9.63719 5.19334 9.55488 5.15701 9.46708C5.12034 9.37865 5.1001 9.28168 5.1001 9.17999C5.1001 9.0783 5.12034 8.98133 5.15701 8.8929C5.19361 8.80444 5.24786 8.72157 5.31977 8.64966L8.35978 5.60968C8.65267 5.31679 9.12755 5.31679 9.42044 5.60969Z" fill="currentColor"/>
</svg>
